<mxfile host="app.diagrams.net" modified="2022-05-02T09:44:55.053Z" agent="5.0 (X11; Linux x86_64) AppleWebKit/537.36 (KHTML, like Gecko) Chrome/100.0.4896.75 Safari/537.36" etag="dI5kU90bWSb5VjLsbHir" version="16.6.3" type="github">
  <diagram id="Wnr6FH2v95wjrzWY3u6L" name="Page-1">
    <mxGraphModel dx="558" dy="544" grid="1" gridSize="10" guides="1" tooltips="1" connect="1" arrows="1" fold="1" page="1" pageScale="1" pageWidth="827" pageHeight="1169" math="0" shadow="0">
      <root>
        <mxCell id="0" />
        <mxCell id="1" parent="0" />
        <mxCell id="W8hxFOR_NZEe8I1eFSsX-2" value="skv" style="rounded=0;whiteSpace=wrap;html=1;" parent="1" vertex="1">
          <mxGeometry x="40" y="40" width="80" height="60" as="geometry" />
        </mxCell>
        <mxCell id="W8hxFOR_NZEe8I1eFSsX-3" value="elevio" style="rounded=0;whiteSpace=wrap;html=1;" parent="1" vertex="1">
          <mxGeometry x="200" y="680" width="360" height="60" as="geometry" />
        </mxCell>
        <mxCell id="W8hxFOR_NZEe8I1eFSsX-45" style="edgeStyle=orthogonalEdgeStyle;rounded=0;orthogonalLoop=1;jettySize=auto;html=1;exitX=0;exitY=0.75;exitDx=0;exitDy=0;" parent="1" source="W8hxFOR_NZEe8I1eFSsX-4" edge="1">
          <mxGeometry relative="1" as="geometry">
            <mxPoint x="560" y="85" as="targetPoint" />
          </mxGeometry>
        </mxCell>
        <mxCell id="W8hxFOR_NZEe8I1eFSsX-4" value="bcast" style="rounded=0;whiteSpace=wrap;html=1;" parent="1" vertex="1">
          <mxGeometry x="640" y="40" width="80" height="60" as="geometry" />
        </mxCell>
        <mxCell id="W8hxFOR_NZEe8I1eFSsX-5" value="elevator" style="rounded=0;whiteSpace=wrap;html=1;" parent="1" vertex="1">
          <mxGeometry x="400" y="360" width="160" height="60" as="geometry" />
        </mxCell>
        <mxCell id="W8hxFOR_NZEe8I1eFSsX-14" style="edgeStyle=orthogonalEdgeStyle;rounded=0;orthogonalLoop=1;jettySize=auto;html=1;exitX=0.75;exitY=1;exitDx=0;exitDy=0;" parent="1" source="W8hxFOR_NZEe8I1eFSsX-6" target="W8hxFOR_NZEe8I1eFSsX-7" edge="1">
          <mxGeometry relative="1" as="geometry">
            <Array as="points">
              <mxPoint x="440" y="100" />
            </Array>
          </mxGeometry>
        </mxCell>
        <mxCell id="W8hxFOR_NZEe8I1eFSsX-21" value="central state" style="edgeLabel;html=1;align=center;verticalAlign=middle;resizable=0;points=[];" parent="W8hxFOR_NZEe8I1eFSsX-14" vertex="1" connectable="0">
          <mxGeometry x="0.0347" relative="1" as="geometry">
            <mxPoint as="offset" />
          </mxGeometry>
        </mxCell>
        <mxCell id="W8hxFOR_NZEe8I1eFSsX-44" style="edgeStyle=orthogonalEdgeStyle;rounded=0;orthogonalLoop=1;jettySize=auto;html=1;exitX=1;exitY=0.25;exitDx=0;exitDy=0;entryX=0;entryY=0.25;entryDx=0;entryDy=0;" parent="1" source="W8hxFOR_NZEe8I1eFSsX-6" target="W8hxFOR_NZEe8I1eFSsX-4" edge="1">
          <mxGeometry relative="1" as="geometry" />
        </mxCell>
        <mxCell id="W8hxFOR_NZEe8I1eFSsX-46" value="central&lt;br&gt;state" style="edgeLabel;html=1;align=center;verticalAlign=middle;resizable=0;points=[];" parent="W8hxFOR_NZEe8I1eFSsX-44" vertex="1" connectable="0">
          <mxGeometry x="-0.3135" y="-1" relative="1" as="geometry">
            <mxPoint x="12" y="14" as="offset" />
          </mxGeometry>
        </mxCell>
        <mxCell id="W8hxFOR_NZEe8I1eFSsX-6" value="main" style="rounded=0;whiteSpace=wrap;html=1;" parent="1" vertex="1">
          <mxGeometry x="200" y="40" width="360" height="60" as="geometry" />
        </mxCell>
        <mxCell id="W8hxFOR_NZEe8I1eFSsX-13" value="" style="edgeStyle=orthogonalEdgeStyle;rounded=0;orthogonalLoop=1;jettySize=auto;html=1;entryX=0.25;entryY=0;entryDx=0;entryDy=0;" parent="1" source="W8hxFOR_NZEe8I1eFSsX-7" target="W8hxFOR_NZEe8I1eFSsX-5" edge="1">
          <mxGeometry relative="1" as="geometry" />
        </mxCell>
        <mxCell id="W8hxFOR_NZEe8I1eFSsX-20" value="order table" style="edgeLabel;html=1;align=center;verticalAlign=middle;resizable=0;points=[];" parent="W8hxFOR_NZEe8I1eFSsX-13" vertex="1" connectable="0">
          <mxGeometry x="-0.3215" y="1" relative="1" as="geometry">
            <mxPoint as="offset" />
          </mxGeometry>
        </mxCell>
        <mxCell id="W8hxFOR_NZEe8I1eFSsX-7" value="assigner" style="rounded=0;whiteSpace=wrap;html=1;" parent="1" vertex="1">
          <mxGeometry x="400" y="200" width="80" height="60" as="geometry" />
        </mxCell>
        <mxCell id="W8hxFOR_NZEe8I1eFSsX-8" value="door" style="rounded=0;whiteSpace=wrap;html=1;" parent="1" vertex="1">
          <mxGeometry x="480" y="520" width="80" height="60" as="geometry" />
        </mxCell>
        <mxCell id="W8hxFOR_NZEe8I1eFSsX-9" value="lights" style="rounded=0;whiteSpace=wrap;html=1;" parent="1" vertex="1">
          <mxGeometry x="280" y="200" width="80" height="60" as="geometry" />
        </mxCell>
        <mxCell id="W8hxFOR_NZEe8I1eFSsX-17" value="" style="endArrow=classic;html=1;rounded=0;exitX=0.622;exitY=0.007;exitDx=0;exitDy=0;exitPerimeter=0;" parent="1" edge="1">
          <mxGeometry width="50" height="50" relative="1" as="geometry">
            <mxPoint x="500.0000000000003" y="359.99999999999983" as="sourcePoint" />
            <mxPoint x="500.4800000000001" y="99.57999999999988" as="targetPoint" />
          </mxGeometry>
        </mxCell>
        <mxCell id="W8hxFOR_NZEe8I1eFSsX-19" value="updated state" style="edgeLabel;html=1;align=center;verticalAlign=middle;resizable=0;points=[];" parent="W8hxFOR_NZEe8I1eFSsX-17" vertex="1" connectable="0">
          <mxGeometry x="-0.5779" y="-1" relative="1" as="geometry">
            <mxPoint x="-1" y="-135" as="offset" />
          </mxGeometry>
        </mxCell>
        <mxCell id="W8hxFOR_NZEe8I1eFSsX-23" style="edgeStyle=orthogonalEdgeStyle;rounded=0;orthogonalLoop=1;jettySize=auto;html=1;exitX=0.75;exitY=1;exitDx=0;exitDy=0;entryX=0.5;entryY=0;entryDx=0;entryDy=0;" parent="1" edge="1">
          <mxGeometry relative="1" as="geometry">
            <mxPoint x="499.9999999999998" y="580" as="sourcePoint" />
            <mxPoint x="500" y="680" as="targetPoint" />
          </mxGeometry>
        </mxCell>
        <mxCell id="W8hxFOR_NZEe8I1eFSsX-37" value="set door&lt;br&gt;light" style="edgeLabel;html=1;align=center;verticalAlign=middle;resizable=0;points=[];" parent="W8hxFOR_NZEe8I1eFSsX-23" vertex="1" connectable="0">
          <mxGeometry x="-0.1524" relative="1" as="geometry">
            <mxPoint y="18" as="offset" />
          </mxGeometry>
        </mxCell>
        <mxCell id="W8hxFOR_NZEe8I1eFSsX-24" style="edgeStyle=orthogonalEdgeStyle;rounded=0;orthogonalLoop=1;jettySize=auto;html=1;exitX=0.75;exitY=1;exitDx=0;exitDy=0;entryX=0.5;entryY=0;entryDx=0;entryDy=0;" parent="1" edge="1">
          <mxGeometry relative="1" as="geometry">
            <mxPoint x="499.9999999999998" y="419.9999999999998" as="sourcePoint" />
            <mxPoint x="500" y="519.9999999999998" as="targetPoint" />
          </mxGeometry>
        </mxCell>
        <mxCell id="W8hxFOR_NZEe8I1eFSsX-35" value="open door" style="edgeLabel;html=1;align=center;verticalAlign=middle;resizable=0;points=[];" parent="W8hxFOR_NZEe8I1eFSsX-24" vertex="1" connectable="0">
          <mxGeometry x="0.2538" y="-3" relative="1" as="geometry">
            <mxPoint as="offset" />
          </mxGeometry>
        </mxCell>
        <mxCell id="W8hxFOR_NZEe8I1eFSsX-25" style="edgeStyle=orthogonalEdgeStyle;rounded=0;orthogonalLoop=1;jettySize=auto;html=1;exitX=0.75;exitY=1;exitDx=0;exitDy=0;entryX=0.5;entryY=0;entryDx=0;entryDy=0;" parent="1" edge="1">
          <mxGeometry relative="1" as="geometry">
            <mxPoint x="540" y="519.9999999999998" as="sourcePoint" />
            <mxPoint x="539.9999999999998" y="419.9999999999998" as="targetPoint" />
          </mxGeometry>
        </mxCell>
        <mxCell id="W8hxFOR_NZEe8I1eFSsX-36" value="door closed" style="edgeLabel;html=1;align=center;verticalAlign=middle;resizable=0;points=[];" parent="W8hxFOR_NZEe8I1eFSsX-25" vertex="1" connectable="0">
          <mxGeometry x="-0.2538" y="-1" relative="1" as="geometry">
            <mxPoint y="-23" as="offset" />
          </mxGeometry>
        </mxCell>
        <mxCell id="W8hxFOR_NZEe8I1eFSsX-26" style="edgeStyle=orthogonalEdgeStyle;rounded=0;orthogonalLoop=1;jettySize=auto;html=1;exitX=0.75;exitY=1;exitDx=0;exitDy=0;entryX=0.5;entryY=0;entryDx=0;entryDy=0;" parent="1" edge="1">
          <mxGeometry relative="1" as="geometry">
            <mxPoint x="540" y="679.9999999999998" as="sourcePoint" />
            <mxPoint x="539.9999999999998" y="579.9999999999998" as="targetPoint" />
          </mxGeometry>
        </mxCell>
        <mxCell id="W8hxFOR_NZEe8I1eFSsX-38" value="obstruction" style="edgeLabel;html=1;align=center;verticalAlign=middle;resizable=0;points=[];" parent="W8hxFOR_NZEe8I1eFSsX-26" vertex="1" connectable="0">
          <mxGeometry x="0.2714" y="-1" relative="1" as="geometry">
            <mxPoint y="-6" as="offset" />
          </mxGeometry>
        </mxCell>
        <mxCell id="W8hxFOR_NZEe8I1eFSsX-27" value="" style="endArrow=classic;html=1;rounded=0;exitX=0.622;exitY=0.007;exitDx=0;exitDy=0;exitPerimeter=0;" parent="1" edge="1">
          <mxGeometry width="50" height="50" relative="1" as="geometry">
            <mxPoint x="460" y="679.9999999999999" as="sourcePoint" />
            <mxPoint x="460.48" y="419.5799999999999" as="targetPoint" />
          </mxGeometry>
        </mxCell>
        <mxCell id="W8hxFOR_NZEe8I1eFSsX-39" value="floor entered" style="edgeLabel;html=1;align=center;verticalAlign=middle;resizable=0;points=[];" parent="W8hxFOR_NZEe8I1eFSsX-27" vertex="1" connectable="0">
          <mxGeometry x="-0.0427" relative="1" as="geometry">
            <mxPoint y="45" as="offset" />
          </mxGeometry>
        </mxCell>
        <mxCell id="W8hxFOR_NZEe8I1eFSsX-29" value="" style="endArrow=classic;html=1;rounded=0;exitX=0.622;exitY=0.007;exitDx=0;exitDy=0;exitPerimeter=0;" parent="1" edge="1">
          <mxGeometry width="50" height="50" relative="1" as="geometry">
            <mxPoint x="420.48" y="419.5799999999999" as="sourcePoint" />
            <mxPoint x="420" y="679.9999999999998" as="targetPoint" />
          </mxGeometry>
        </mxCell>
        <mxCell id="W8hxFOR_NZEe8I1eFSsX-40" value="set motor&lt;br&gt;direction /&lt;br&gt;set floor&lt;br&gt;indicator" style="edgeLabel;html=1;align=center;verticalAlign=middle;resizable=0;points=[];" parent="W8hxFOR_NZEe8I1eFSsX-29" vertex="1" connectable="0">
          <mxGeometry x="-0.1441" y="1" relative="1" as="geometry">
            <mxPoint as="offset" />
          </mxGeometry>
        </mxCell>
        <mxCell id="W8hxFOR_NZEe8I1eFSsX-30" style="edgeStyle=orthogonalEdgeStyle;rounded=0;orthogonalLoop=1;jettySize=auto;html=1;exitX=0.75;exitY=1;exitDx=0;exitDy=0;entryX=0.5;entryY=0;entryDx=0;entryDy=0;" parent="1" edge="1">
          <mxGeometry relative="1" as="geometry">
            <mxPoint x="319.68999999999977" y="99.99999999999977" as="sourcePoint" />
            <mxPoint x="319.69" y="199.99999999999977" as="targetPoint" />
          </mxGeometry>
        </mxCell>
        <mxCell id="W8hxFOR_NZEe8I1eFSsX-41" value="central state" style="edgeLabel;html=1;align=center;verticalAlign=middle;resizable=0;points=[];" parent="W8hxFOR_NZEe8I1eFSsX-30" vertex="1" connectable="0">
          <mxGeometry x="0.1769" y="-2" relative="1" as="geometry">
            <mxPoint as="offset" />
          </mxGeometry>
        </mxCell>
        <mxCell id="W8hxFOR_NZEe8I1eFSsX-32" value="" style="endArrow=classic;html=1;rounded=0;exitX=0.5;exitY=1;exitDx=0;exitDy=0;" parent="1" source="W8hxFOR_NZEe8I1eFSsX-9" edge="1">
          <mxGeometry width="50" height="50" relative="1" as="geometry">
            <mxPoint x="230" y="390" as="sourcePoint" />
            <mxPoint x="320" y="680" as="targetPoint" />
          </mxGeometry>
        </mxCell>
        <mxCell id="W8hxFOR_NZEe8I1eFSsX-42" value="set button light" style="edgeLabel;html=1;align=center;verticalAlign=middle;resizable=0;points=[];" parent="W8hxFOR_NZEe8I1eFSsX-32" vertex="1" connectable="0">
          <mxGeometry x="-0.7454" relative="1" as="geometry">
            <mxPoint as="offset" />
          </mxGeometry>
        </mxCell>
        <mxCell id="W8hxFOR_NZEe8I1eFSsX-34" value="" style="endArrow=classic;html=1;rounded=0;exitX=0.622;exitY=0.007;exitDx=0;exitDy=0;exitPerimeter=0;entryX=0.111;entryY=1;entryDx=0;entryDy=0;entryPerimeter=0;" parent="1" target="W8hxFOR_NZEe8I1eFSsX-6" edge="1">
          <mxGeometry width="50" height="50" relative="1" as="geometry">
            <mxPoint x="240" y="680" as="sourcePoint" />
            <mxPoint x="240.48000000000002" y="419.5799999999999" as="targetPoint" />
          </mxGeometry>
        </mxCell>
        <mxCell id="W8hxFOR_NZEe8I1eFSsX-43" value="button pressed" style="edgeLabel;html=1;align=center;verticalAlign=middle;resizable=0;points=[];" parent="W8hxFOR_NZEe8I1eFSsX-34" vertex="1" connectable="0">
          <mxGeometry x="0.3621" y="-2" relative="1" as="geometry">
            <mxPoint as="offset" />
          </mxGeometry>
        </mxCell>
        <mxCell id="W8hxFOR_NZEe8I1eFSsX-47" style="edgeStyle=orthogonalEdgeStyle;rounded=0;orthogonalLoop=1;jettySize=auto;html=1;exitX=0;exitY=0.75;exitDx=0;exitDy=0;" parent="1" edge="1">
          <mxGeometry relative="1" as="geometry">
            <mxPoint x="120" y="84.62" as="targetPoint" />
            <mxPoint x="200" y="84.62" as="sourcePoint" />
          </mxGeometry>
        </mxCell>
        <mxCell id="W8hxFOR_NZEe8I1eFSsX-48" style="edgeStyle=orthogonalEdgeStyle;rounded=0;orthogonalLoop=1;jettySize=auto;html=1;exitX=1;exitY=0.25;exitDx=0;exitDy=0;entryX=0;entryY=0.25;entryDx=0;entryDy=0;" parent="1" edge="1">
          <mxGeometry relative="1" as="geometry">
            <mxPoint x="120" y="54.62" as="sourcePoint" />
            <mxPoint x="200" y="54.62" as="targetPoint" />
          </mxGeometry>
        </mxCell>
        <mxCell id="W8hxFOR_NZEe8I1eFSsX-49" value="central&lt;br&gt;state" style="edgeLabel;html=1;align=center;verticalAlign=middle;resizable=0;points=[];" parent="W8hxFOR_NZEe8I1eFSsX-48" vertex="1" connectable="0">
          <mxGeometry x="-0.3135" y="-1" relative="1" as="geometry">
            <mxPoint x="12" y="14" as="offset" />
          </mxGeometry>
        </mxCell>
        <mxCell id="W8hxFOR_NZEe8I1eFSsX-50" value="" style="endArrow=classic;html=1;rounded=0;exitX=0.622;exitY=0.007;exitDx=0;exitDy=0;exitPerimeter=0;" parent="1" edge="1">
          <mxGeometry width="50" height="50" relative="1" as="geometry">
            <mxPoint x="540.0000000000002" y="359.9999999999998" as="sourcePoint" />
            <mxPoint x="540.48" y="99.57999999999993" as="targetPoint" />
          </mxGeometry>
        </mxCell>
        <mxCell id="W8hxFOR_NZEe8I1eFSsX-51" value="completed order" style="edgeLabel;html=1;align=center;verticalAlign=middle;resizable=0;points=[];" parent="W8hxFOR_NZEe8I1eFSsX-50" vertex="1" connectable="0">
          <mxGeometry x="-0.5779" y="-1" relative="1" as="geometry">
            <mxPoint x="9" y="-105" as="offset" />
          </mxGeometry>
        </mxCell>
      </root>
    </mxGraphModel>
  </diagram>
</mxfile>
